<mxfile host="app.diagrams.net" agent="Mozilla/5.0 (Windows NT 10.0; Win64; x64) AppleWebKit/537.36 (KHTML, like Gecko) Chrome/123.0.0.0 Safari/537.36 OPR/109.0.0.0" version="24.7.6">
  <diagram name="Page-1" id="TNqyelO4v4bURY0EeksO">
    <mxGraphModel dx="1393" dy="766" grid="1" gridSize="10" guides="1" tooltips="1" connect="1" arrows="1" fold="1" page="1" pageScale="1" pageWidth="827" pageHeight="1169" math="0" shadow="0">
      <root>
        <mxCell id="0" />
        <mxCell id="1" parent="0" />
        <mxCell id="8oOatFIqV7Ikc9F0cQmh-14" style="edgeStyle=orthogonalEdgeStyle;rounded=0;orthogonalLoop=1;jettySize=auto;html=1;entryX=0;entryY=0.5;entryDx=0;entryDy=0;fillColor=#dae8fc;strokeColor=#6c8ebf;" parent="1" source="8oOatFIqV7Ikc9F0cQmh-1" target="8oOatFIqV7Ikc9F0cQmh-5" edge="1">
          <mxGeometry relative="1" as="geometry" />
        </mxCell>
        <mxCell id="8oOatFIqV7Ikc9F0cQmh-1" value="Visitor&lt;div&gt;&lt;br&gt;&lt;/div&gt;" style="shape=umlActor;verticalLabelPosition=bottom;verticalAlign=top;html=1;outlineConnect=0;fontFamily=Times New Roman;fillColor=#dae8fc;strokeColor=#6c8ebf;" parent="1" vertex="1">
          <mxGeometry x="60" y="120" width="30" height="60" as="geometry" />
        </mxCell>
        <mxCell id="8oOatFIqV7Ikc9F0cQmh-15" style="edgeStyle=orthogonalEdgeStyle;rounded=0;orthogonalLoop=1;jettySize=auto;html=1;fillColor=#d5e8d4;strokeColor=#82b366;" parent="1" source="8oOatFIqV7Ikc9F0cQmh-2" target="8oOatFIqV7Ikc9F0cQmh-6" edge="1">
          <mxGeometry relative="1" as="geometry" />
        </mxCell>
        <mxCell id="8oOatFIqV7Ikc9F0cQmh-16" style="edgeStyle=orthogonalEdgeStyle;rounded=0;orthogonalLoop=1;jettySize=auto;html=1;fillColor=#d5e8d4;strokeColor=#82b366;" parent="1" source="8oOatFIqV7Ikc9F0cQmh-2" target="8oOatFIqV7Ikc9F0cQmh-5" edge="1">
          <mxGeometry relative="1" as="geometry">
            <Array as="points">
              <mxPoint x="75" y="240" />
              <mxPoint x="414" y="240" />
            </Array>
          </mxGeometry>
        </mxCell>
        <mxCell id="8oOatFIqV7Ikc9F0cQmh-2" value="&lt;font face=&quot;Times New Roman&quot;&gt;Customer&lt;/font&gt;" style="shape=umlActor;verticalLabelPosition=bottom;verticalAlign=top;html=1;outlineConnect=0;fillColor=#d5e8d4;strokeColor=#82b366;" parent="1" vertex="1">
          <mxGeometry x="60" y="280" width="30" height="60" as="geometry" />
        </mxCell>
        <mxCell id="8oOatFIqV7Ikc9F0cQmh-17" style="edgeStyle=orthogonalEdgeStyle;rounded=0;orthogonalLoop=1;jettySize=auto;html=1;entryX=0;entryY=0.5;entryDx=0;entryDy=0;fillColor=#e1d5e7;strokeColor=#9673a6;" parent="1" source="8oOatFIqV7Ikc9F0cQmh-3" target="8oOatFIqV7Ikc9F0cQmh-7" edge="1">
          <mxGeometry relative="1" as="geometry" />
        </mxCell>
        <mxCell id="fYeGV8zYt6olWl722jnf-1" style="edgeStyle=orthogonalEdgeStyle;rounded=0;orthogonalLoop=1;jettySize=auto;html=1;fillColor=#e1d5e7;strokeColor=#9673a6;" edge="1" parent="1" source="8oOatFIqV7Ikc9F0cQmh-3" target="8oOatFIqV7Ikc9F0cQmh-6">
          <mxGeometry relative="1" as="geometry">
            <Array as="points">
              <mxPoint x="75" y="400" />
              <mxPoint x="414" y="400" />
            </Array>
          </mxGeometry>
        </mxCell>
        <mxCell id="fYeGV8zYt6olWl722jnf-2" style="edgeStyle=orthogonalEdgeStyle;rounded=0;orthogonalLoop=1;jettySize=auto;html=1;entryX=0.5;entryY=1;entryDx=0;entryDy=0;fillColor=#e1d5e7;strokeColor=#9673a6;" edge="1" parent="1" source="8oOatFIqV7Ikc9F0cQmh-3" target="8oOatFIqV7Ikc9F0cQmh-5">
          <mxGeometry relative="1" as="geometry">
            <Array as="points">
              <mxPoint x="50" y="450" />
              <mxPoint x="50" y="210" />
              <mxPoint x="414" y="210" />
            </Array>
          </mxGeometry>
        </mxCell>
        <mxCell id="8oOatFIqV7Ikc9F0cQmh-3" value="&lt;font face=&quot;Times New Roman&quot;&gt;Admin&lt;/font&gt;" style="shape=umlActor;verticalLabelPosition=bottom;verticalAlign=top;html=1;outlineConnect=0;fillColor=#e1d5e7;strokeColor=#9673a6;" parent="1" vertex="1">
          <mxGeometry x="60" y="420" width="30" height="60" as="geometry" />
        </mxCell>
        <mxCell id="8oOatFIqV7Ikc9F0cQmh-18" style="edgeStyle=orthogonalEdgeStyle;rounded=0;orthogonalLoop=1;jettySize=auto;html=1;fillColor=#f8cecc;strokeColor=#b85450;" parent="1" source="8oOatFIqV7Ikc9F0cQmh-4" target="8oOatFIqV7Ikc9F0cQmh-8" edge="1">
          <mxGeometry relative="1" as="geometry" />
        </mxCell>
        <mxCell id="8oOatFIqV7Ikc9F0cQmh-19" style="edgeStyle=orthogonalEdgeStyle;rounded=0;orthogonalLoop=1;jettySize=auto;html=1;entryX=0.5;entryY=1;entryDx=0;entryDy=0;fillColor=#f8cecc;strokeColor=#b85450;" parent="1" source="8oOatFIqV7Ikc9F0cQmh-4" target="8oOatFIqV7Ikc9F0cQmh-7" edge="1">
          <mxGeometry relative="1" as="geometry">
            <Array as="points">
              <mxPoint x="75" y="540" />
              <mxPoint x="414" y="540" />
            </Array>
          </mxGeometry>
        </mxCell>
        <mxCell id="8oOatFIqV7Ikc9F0cQmh-4" value="&lt;font face=&quot;Times New Roman&quot;&gt;SuperAdmin&lt;/font&gt;" style="shape=umlActor;verticalLabelPosition=bottom;verticalAlign=top;html=1;outlineConnect=0;fillColor=#f8cecc;strokeColor=#b85450;" parent="1" vertex="1">
          <mxGeometry x="60" y="580" width="30" height="60" as="geometry" />
        </mxCell>
        <mxCell id="8oOatFIqV7Ikc9F0cQmh-5" value="Voit le contenu de l&#39;application" style="ellipse;whiteSpace=wrap;html=1;fillColor=#dae8fc;strokeColor=#6c8ebf;" parent="1" vertex="1">
          <mxGeometry x="354" y="110" width="120" height="80" as="geometry" />
        </mxCell>
        <mxCell id="8oOatFIqV7Ikc9F0cQmh-6" value="&lt;div&gt;&lt;span style=&quot;background-color: initial;&quot;&gt;Intéragie avec les options d&#39;achats&lt;/span&gt;&lt;br&gt;&lt;/div&gt;" style="ellipse;whiteSpace=wrap;html=1;fillColor=#d5e8d4;strokeColor=#82b366;" parent="1" vertex="1">
          <mxGeometry x="354" y="270" width="120" height="80" as="geometry" />
        </mxCell>
        <mxCell id="8oOatFIqV7Ikc9F0cQmh-7" value="Fait la gestion de&amp;nbsp; l&#39;application" style="ellipse;whiteSpace=wrap;html=1;fillColor=#e1d5e7;strokeColor=#9673a6;" parent="1" vertex="1">
          <mxGeometry x="354" y="410" width="120" height="80" as="geometry" />
        </mxCell>
        <mxCell id="8oOatFIqV7Ikc9F0cQmh-8" value="détient plus de droits sur la gestion de l&#39;application et des utilisateurs" style="ellipse;whiteSpace=wrap;html=1;fillColor=#f8cecc;strokeColor=#b85450;" parent="1" vertex="1">
          <mxGeometry x="354" y="570" width="120" height="80" as="geometry" />
        </mxCell>
      </root>
    </mxGraphModel>
  </diagram>
</mxfile>
